<svg width="24" height="24" viewBox="0 0 24 24" fill="none" xmlns="http://www.w3.org/2000/svg">
<g id="EnergySupply">
<path id="icon-background"  d="M4 10.1433C4 5.64588 7.58172 2 12 2C16.4183 2 20 5.64588 20 10.1433C20 14.6055 14 18.5 13.4629 21.6744C12.5 22.5 11.5 22.5 10.5371 21.6744C10 18.5 4 14.6055 4 10.1433Z" stroke="#FF6347" stroke-width="1.5"/>
<path id="icon-symbol" d="M8.83476 8.95718L10.3658 6.88566C11.3555 5.54664 11.8504 4.87712 12.312 5.01861C12.7737 5.16009 12.7737 5.98125 12.7737 7.62356V7.77841C12.7737 8.37076 12.7737 8.66693 12.963 8.85271L12.973 8.86233C13.1664 9.04418 13.4746 9.04418 14.0911 9.04418C15.2006 9.04418 15.7553 9.04418 15.9428 9.38065C15.9459 9.38622 15.9489 9.39184 15.9518 9.3975C16.1288 9.73918 15.8076 10.1737 15.1652 11.0428L13.6342 13.1143C12.6445 14.4534 12.1496 15.1229 11.6879 14.9814C11.2262 14.8399 11.2263 14.0187 11.2263 12.3764L11.2263 12.2216C11.2263 11.6293 11.2263 11.3331 11.037 11.1473L11.027 11.1377C10.8337 10.9558 10.5254 10.9558 9.90888 10.9558C8.79944 10.9558 8.24472 10.9558 8.05725 10.6194C8.05414 10.6138 8.05113 10.6082 8.0482 10.6025C7.87122 10.2608 8.1924 9.82629 8.83476 8.95718Z" fill="#FF6347"/>
</g>
</svg>
