<?xml version="1.0" encoding="utf-8"?>
<svg fill="none" height="24" viewBox="0 0 24 24" width="24" xmlns="http://www.w3.org/2000/svg">
<g id="Water&amp;WasteManagement ">
<g id="icon-symbol">
<path d="M11 11.9167C11 13.0673 10.1046 14 9 14C7.89543 14 7 13.0673 7 11.9167C7 11.1968 7.78296 10.2359 8.36911 9.61744C8.71611 9.25132 9.28389 9.25132 9.63089 9.61744C10.217 10.2359 11 11.1968 11 11.9167Z" fill="#0284C7"/>
<path d="M17 11.9167C17 13.0673 16.1046 14 15 14C13.8954 14 13 13.0673 13 11.9167C13 11.1968 13.783 10.2359 14.3691 9.61744C14.7161 9.25132 15.2839 9.25132 15.6309 9.61744C16.217 10.2359 17 11.1968 17 11.9167Z" fill="#0284C7"/>
<path d="M14 6.91667C14 8.06726 13.1046 9 12 9C10.8954 9 10 8.06726 10 6.91667C10 6.19676 10.783 5.2359 11.3691 4.61744C11.7161 4.25132 12.2839 4.25132 12.6309 4.61744C13.217 5.2359 14 6.19676 14 6.91667Z" fill="#0284C7"/>
</g>
<path d="M4 10.1433C4 5.64588 7.58172 2 12 2C16.4183 2 20 5.64588 20 10.1433C20 14.6055 14 18.5 13.4629 21.6744C12.5 22.5 11.5 22.5 10.5371 21.6744C10 18.5 4 14.6055 4 10.1433Z" id="icon-background" opacity="0.5" stroke="#0284C7" stroke-width="1.5"/>
</g>
</svg>