<?xml version="1.0" encoding="utf-8"?>
<svg fill="none" height="24" viewBox="0 0 24 24" width="24" xmlns="http://www.w3.org/2000/svg">
<g id="Construction">
<path d="M9.80189 5.30189C10.6698 4.43396 11.1038 4 11.643 4C12.1823 4 12.6163 4.43396 13.4842 5.30189L15.6936 7.51128C16.5615 8.37921 16.9955 8.81317 16.9955 9.35244C16.9955 9.8917 16.5615 10.3257 15.6936 11.1936C14.8257 12.0615 14.3917 12.4955 13.8524 12.4955C13.3132 12.4955 12.8792 12.0615 12.0113 11.1936L9.80189 8.98421C8.93396 8.11628 8.5 7.68231 8.5 7.14305C8.5 6.60379 8.93396 6.16982 9.80189 5.30189Z" fill="#713F12" id="icon-symbol2"/>
<g id="icon-symbol1">
<path d="M9.642 9.88497L7.41291 12.1141C7.24168 12.2853 7.15607 12.3709 7.10465 12.46C6.96512 12.7016 6.96512 12.9994 7.10465 13.2411C7.15607 13.3302 7.24168 13.4158 7.41289 13.587C7.58411 13.7582 7.66974 13.8438 7.7588 13.8952C8.00048 14.0348 8.29825 14.0348 8.53994 13.8952C8.629 13.8438 8.71461 13.7582 8.88583 13.587L11.1149 11.3579L9.642 9.88497Z" fill="#713F12"/>
<path d="M10.1723 9.35464L10.1745 9.35244L11.6475 10.8254L11.6453 10.8276L10.1723 9.35464Z" fill="#713F12"/>
<path d="M15.8343 6.5913C15.9617 6.35365 15.9576 6.06632 15.8222 5.8318C15.7708 5.74274 15.6852 5.65713 15.514 5.4859C15.3428 5.31468 15.2572 5.22907 15.1681 5.17765C14.9336 5.04225 14.6462 5.03824 14.4086 5.16561L15.8343 6.5913Z" fill="#713F12"/>
</g>
<path d="M4 10.1433C4 5.64588 7.58172 2 12 2C16.4183 2 20 5.64588 20 10.1433C20 14.6055 14 18.5 13.4629 21.6744C12.5 22.5 11.5 22.5 10.5371 21.6744C10 18.5 4 14.6055 4 10.1433Z" id="icon-background" opacity="0.5" stroke="#713F12" stroke-width="1.5"/>
</g>
</svg>