<?xml version="1.0" encoding="utf-8"?>
<svg fill="none" height="24" viewBox="0 0 24 24" width="24" xmlns="http://www.w3.org/2000/svg">
<g id="Wholesale&amp;Retail">
<g id="icon-symbol">
<path clip-rule="evenodd" d="M6.64435 6.38139C6.70984 6.18492 6.92221 6.07873 7.11869 6.14422L7.27088 6.19495C7.58407 6.29934 7.84873 6.38755 8.05685 6.48437C8.27807 6.58728 8.47001 6.71483 8.61556 6.91676C8.76111 7.1187 8.82141 7.34113 8.84909 7.58354C8.86322 7.70733 8.86968 7.84614 8.87263 7.99998H14.2254C15.2529 7.99998 15.7666 7.99998 15.9889 8.33711C16.2112 8.67424 16.0089 9.14645 15.6041 10.0909L15.3898 10.5909C15.2009 11.0318 15.1064 11.2522 14.9185 11.3761C14.7307 11.5 14.4908 11.5 14.0111 11.5H8.9517C9.0042 11.7699 9.08701 11.9279 9.20461 12.0455C9.34299 12.1839 9.53727 12.2741 9.90416 12.3234C10.2818 12.3742 10.7824 12.375 11.5001 12.375H15.0001C15.2072 12.375 15.3751 12.5429 15.3751 12.75C15.3751 12.9571 15.2072 13.125 15.0001 13.125H11.4727C10.7889 13.125 10.2377 13.125 9.80423 13.0667C9.35417 13.0062 8.97523 12.8768 8.67428 12.5758C8.37332 12.2748 8.24387 11.8959 8.18336 11.4459C8.12508 11.0124 8.12509 10.4612 8.1251 9.77742L8.1251 8.4415C8.1251 8.085 8.12454 7.84912 8.10393 7.66861C8.08441 7.49769 8.05034 7.41525 8.00713 7.3553C7.96392 7.29534 7.89648 7.23695 7.7405 7.16438C7.57578 7.08775 7.35218 7.01262 7.01397 6.89989L6.88152 6.85574C6.68504 6.79024 6.57885 6.57787 6.64435 6.38139ZM10.0001 9.12498C9.79299 9.12498 9.6251 9.29287 9.6251 9.49998C9.6251 9.70709 9.79299 9.87498 10.0001 9.87498H11.5001C11.7072 9.87498 11.8751 9.70709 11.8751 9.49998C11.8751 9.29287 11.7072 9.12498 11.5001 9.12498H10.0001Z" fill="#9333EA" fill-rule="evenodd"/>
<path d="M9.75 14C10.1642 14 10.5 14.3358 10.5 14.75C10.5 15.1642 10.1642 15.5 9.75 15.5C9.33579 15.5 9 15.1642 9 14.75C9 14.3358 9.33579 14 9.75 14Z" fill="#9333EA"/>
<path d="M14.25 14C14.6642 14 15 14.3358 15 14.75C15 15.1643 14.6642 15.5 14.25 15.5C13.8358 15.5 13.5 15.1643 13.5 14.75C13.5 14.3358 13.8358 14 14.25 14Z" fill="#9333EA"/>
</g>
<path d="M4 10.1433C4 5.64588 7.58172 2 12 2C16.4183 2 20 5.64588 20 10.1433C20 14.6055 14 18.5 13.4629 21.6744C12.5 22.5 11.5 22.5 10.5371 21.6744C10 18.5 4 14.6055 4 10.1433Z" id="icon-background" opacity="0.5" stroke="#9333EA" stroke-width="1.5"/>
</g>
</svg>