<?xml version="1.0" encoding="utf-8"?>
<svg fill="none" height="24" viewBox="0 0 24 24" width="24" xmlns="http://www.w3.org/2000/svg">
<g id="Transport&amp;Storage">
<g id="icon-symbol">
<path d="M14.7889 6.21576L13.7889 5.69098C12.911 5.23033 12.4721 5 12 5C11.5279 5 11.089 5.23033 10.2111 5.69098L10.0503 5.7754L14.5118 8.32484L16.5202 7.32066C16.1971 6.95475 15.6757 6.68117 14.7889 6.21576Z" fill="#D97706"/>
<path d="M16.8742 7.98217L14.875 8.98176V10.5C14.875 10.7071 14.7071 10.875 14.5 10.875C14.2929 10.875 14.125 10.7071 14.125 10.5V9.35676L12.375 10.2318V14.952C12.734 14.8626 13.1424 14.6483 13.7888 14.309L14.7889 13.7842C15.8647 13.2197 16.4026 12.9374 16.7013 12.4301C17 11.9229 17 11.2917 17 10.0292V9.97076C17 9.02443 17 8.43279 16.8742 7.98217Z" fill="#D97706"/>
<path d="M11.625 14.952V10.2318L7.12582 7.98217C7 8.43279 7 9.02443 7 9.97076V10.0292C7 11.2917 7 11.9229 7.2987 12.4301C7.5974 12.9374 8.13531 13.2197 9.21114 13.7842L10.2111 14.309C10.8576 14.6483 11.266 14.8626 11.625 14.952Z" fill="#D97706"/>
<path d="M7.47985 7.32066L12 9.58074L13.7056 8.72795L9.26228 6.18892L9.21115 6.21576C8.32427 6.68117 7.80295 6.95475 7.47985 7.32066Z" fill="#D97706"/>
</g>
<path d="M4 10.1433C4 5.64588 7.58172 2 12 2C16.4183 2 20 5.64588 20 10.1433C20 14.6055 14 18.5 13.4629 21.6744C12.5 22.5 11.5 22.5 10.5371 21.6744C10 18.5 4 14.6055 4 10.1433Z" id="icon-background" opacity="0.5" stroke="#D97706" stroke-width="1.5"/>
</g>
</svg>