<?xml version="1.0" encoding="utf-8"?>
<svg fill="none" height="24" viewBox="0 0 24 24" width="24" xmlns="http://www.w3.org/2000/svg">
<g id="IT&amp;Telecommunications">
<g id="icon-symbol">
<path clip-rule="evenodd" d="M10.8158 8.51081C10.6645 8.53115 10.6171 8.56399 10.5905 8.59055C10.564 8.6171 10.5311 8.66452 10.5108 8.81583C10.4891 8.97717 10.4884 9.19614 10.4884 9.53489V10.4651C10.4884 10.8039 10.4891 11.0228 10.5108 11.1842C10.5311 11.3355 10.564 11.3829 10.5905 11.4095C10.6171 11.436 10.6645 11.4689 10.8158 11.4892C10.9772 11.5109 11.1961 11.5116 11.5349 11.5116H12.4651C12.8039 11.5116 13.0228 11.5109 13.1842 11.4892C13.3355 11.4689 13.3829 11.436 13.4095 11.4095C13.436 11.3829 13.4689 11.3355 13.4892 11.1842C13.5109 11.0228 13.5116 10.8039 13.5116 10.4651V9.53489C13.5116 9.19614 13.5109 8.97717 13.4892 8.81583C13.4689 8.66452 13.436 8.6171 13.4095 8.59055C13.3829 8.56399 13.3355 8.53115 13.1842 8.51081C13.0228 8.48911 12.8039 8.48837 12.4651 8.48837H11.5349C11.1961 8.48837 10.9772 8.48911 10.8158 8.51081ZM12.4832 9.27255C12.5952 9.11578 12.5589 8.89791 12.4021 8.78593C12.2453 8.67395 12.0275 8.71027 11.9155 8.86704L11.251 9.79727C11.1751 9.9036 11.1649 10.0435 11.2247 10.1596C11.2845 10.2758 11.4042 10.3489 11.5349 10.3489H11.7873L11.5168 10.7275C11.4048 10.8843 11.4411 11.1021 11.5979 11.2141C11.7547 11.3261 11.9725 11.2898 12.0845 11.133L12.749 10.2028C12.8249 10.0965 12.8351 9.95659 12.7753 9.84041C12.7155 9.72422 12.5958 9.65119 12.4651 9.65119H12.2127L12.4832 9.27255Z" fill="#1E3A8A" fill-rule="evenodd"/>
<path clip-rule="evenodd" d="M12.3488 5.34884C12.3488 5.15618 12.1927 5 12 5C11.8073 5 11.6512 5.15618 11.6512 5.34884V6.74419C11.3958 6.74472 11.1641 6.74671 10.9534 6.75248L10.9535 6.74419V5.34884C10.9535 5.15618 10.7973 5 10.6047 5C10.412 5 10.2558 5.15618 10.2558 5.34884V6.74419C10.2558 6.76244 10.2572 6.78036 10.2599 6.79785C9.79191 6.85533 9.46758 6.97439 9.22099 7.22099C8.97439 7.46758 8.85533 7.79191 8.79785 8.25992C8.78036 8.25722 8.76244 8.25581 8.74419 8.25581H7.34884C7.15618 8.25581 7 8.41199 7 8.60465C7 8.79731 7.15618 8.95349 7.34884 8.95349H8.74419L8.75248 8.95339C8.74671 9.16413 8.74495 9.39579 8.74442 9.65116L7.34884 9.65116C7.15618 9.65116 7 9.80734 7 10C7 10.1927 7.15618 10.3488 7.34884 10.3488H8.74419C8.74472 10.6042 8.74671 10.8359 8.75248 11.0466L8.74419 11.0465H7.34884C7.15618 11.0465 7 11.2027 7 11.3953C7 11.588 7.15618 11.7442 7.34884 11.7442H8.74419C8.76244 11.7442 8.78036 11.7428 8.79785 11.7401C8.85533 12.2081 8.97439 12.5324 9.22099 12.779C9.46758 13.0256 9.79191 13.1447 10.2599 13.2021C10.2572 13.2196 10.2558 13.2376 10.2558 13.2558V14.6512C10.2558 14.8438 10.412 15 10.6047 15C10.7973 15 10.9535 14.8438 10.9535 14.6512V13.2558L10.9534 13.2475C11.1641 13.2533 11.3958 13.255 11.6512 13.2556L11.6512 14.6512C11.6512 14.8438 11.8073 15 12 15C12.1927 15 12.3488 14.8438 12.3488 14.6512V13.2558C12.6042 13.2553 12.8359 13.2533 13.0466 13.2475L13.0465 13.2558V14.6512C13.0465 14.8438 13.2027 15 13.3953 15C13.588 15 13.7442 14.8438 13.7442 14.6512V13.2558C13.7442 13.2376 13.7428 13.2196 13.7401 13.2021C14.2081 13.1447 14.5324 13.0256 14.779 12.779C15.0256 12.5324 15.1447 12.2081 15.2021 11.7401C15.2196 11.7428 15.2376 11.7442 15.2558 11.7442H16.6512C16.8438 11.7442 17 11.588 17 11.3953C17 11.2027 16.8438 11.0465 16.6512 11.0465H15.2558L15.2475 11.0466C15.2533 10.8359 15.255 10.6042 15.2556 10.3488L16.6512 10.3488C16.8438 10.3488 17 10.1927 17 10C17 9.80734 16.8438 9.65116 16.6512 9.65116H15.2558C15.2553 9.39579 15.2533 9.16413 15.2475 8.95339L15.2558 8.95349H16.6512C16.8438 8.95349 17 8.79731 17 8.60465C17 8.41199 16.8438 8.25581 16.6512 8.25581H15.2558C15.2376 8.25581 15.2196 8.25722 15.2021 8.25992C15.1447 7.79191 15.0256 7.46758 14.779 7.22099C14.5324 6.97439 14.2081 6.85533 13.7401 6.79785C13.7428 6.78036 13.7442 6.76244 13.7442 6.74419V5.34884C13.7442 5.15618 13.588 5 13.3953 5C13.2027 5 13.0465 5.15618 13.0465 5.34884V6.74419L13.0466 6.75248C12.8359 6.74671 12.6042 6.74495 12.3488 6.74442V5.34884ZM10.7229 7.81935C10.9362 7.79067 11.2027 7.79068 11.5119 7.7907H12.4881C12.7973 7.79068 13.0638 7.79067 13.2771 7.81935C13.5058 7.8501 13.725 7.91943 13.9028 8.09722C14.0806 8.275 14.1499 8.4942 14.1807 8.72287C14.2093 8.93623 14.2093 9.20267 14.2093 9.51191V10.4881C14.2093 10.7973 14.2093 11.0638 14.1807 11.2771C14.1499 11.5058 14.0806 11.725 13.9028 11.9028C13.725 12.0806 13.5058 12.1499 13.2771 12.1807C13.0638 12.2093 12.7973 12.2093 12.4881 12.2093H11.5119C11.2027 12.2093 10.9362 12.2093 10.7229 12.1807C10.4942 12.1499 10.275 12.0806 10.0972 11.9028C9.91943 11.725 9.8501 11.5058 9.81935 11.2771C9.79067 11.0638 9.79068 10.7973 9.7907 10.4881V9.51192C9.79068 9.20268 9.79067 8.93623 9.81935 8.72287C9.8501 8.4942 9.91943 8.275 10.0972 8.09722C10.275 7.91943 10.4942 7.8501 10.7229 7.81935Z" fill="#1E3A8A" fill-rule="evenodd"/>
</g>
<path d="M4 10.1433C4 5.64588 7.58172 2 12 2C16.4183 2 20 5.64588 20 10.1433C20 14.6055 14 18.5 13.4629 21.6744C12.5 22.5 11.5 22.5 10.5371 21.6744C10 18.5 4 14.6055 4 10.1433Z" id="icon-background" opacity="0.5" stroke="#1E3A8A" stroke-width="1.5"/>
</g>
</svg>