<svg width="24" height="24" viewBox="0 0 24 24" fill="none" xmlns="http://www.w3.org/2000/svg">
<g id="Finance&#38;Insurance">
<path id="icon-symbol" fill-rule="evenodd" clip-rule="evenodd" d="M12.026 3.625H11.974C11.5248 3.62499 11.1501 3.62497 10.8528 3.66496C10.5389 3.70716 10.2555 3.79999 10.0277 4.02773C9.79999 4.25546 9.70716 4.53886 9.66496 4.85276C9.6363 5.06594 9.62819 5.57574 9.6259 6.01283C8.61477 6.04585 8.00768 6.16389 7.58579 6.58579C7 7.17157 7 8.11438 7 10C7 11.8856 7 12.8284 7.58579 13.4142C8.17157 14 9.11438 14 11 14H13C14.8856 14 15.8284 14 16.4142 13.4142C17 12.8284 17 11.8856 17 10C17 8.11438 17 7.17157 16.4142 6.58579C15.9923 6.16389 15.3852 6.04585 14.3741 6.01283C14.3718 5.57574 14.3637 5.06594 14.335 4.85276C14.2928 4.53886 14.2 4.25546 13.9723 4.02773C13.7445 3.79999 13.4611 3.70716 13.1472 3.66496C12.8499 3.62497 12.4752 3.62499 12.026 3.625ZM13.624 6.00094C13.6217 5.57762 13.6145 5.12204 13.5917 4.9527C13.5607 4.72197 13.5071 4.62322 13.4419 4.55806C13.3768 4.4929 13.278 4.43929 13.0473 4.40827C12.8058 4.3758 12.482 4.375 12 4.375C11.518 4.375 11.1942 4.3758 10.9527 4.40827C10.722 4.43929 10.6232 4.4929 10.5581 4.55806C10.4929 4.62322 10.4393 4.72197 10.4083 4.9527C10.3855 5.12204 10.3783 5.57762 10.376 6.00094C10.5717 6 10.7794 6 11 6H13C13.2206 6 13.4283 6 13.624 6.00094ZM12 7.625C12.2071 7.625 12.375 7.79289 12.375 8V8.00512C12.9194 8.14227 13.375 8.5715 13.375 9.16667C13.375 9.37377 13.2071 9.54167 13 9.54167C12.7929 9.54167 12.625 9.37377 12.625 9.16667C12.625 8.97465 12.4121 8.70833 12 8.70833C11.5879 8.70833 11.375 8.97465 11.375 9.16667C11.375 9.35868 11.5879 9.625 12 9.625C12.6925 9.625 13.375 10.1049 13.375 10.8333C13.375 11.4285 12.9194 11.8577 12.375 11.9949V12C12.375 12.2071 12.2071 12.375 12 12.375C11.7929 12.375 11.625 12.2071 11.625 12V11.9949C11.0806 11.8577 10.625 11.4285 10.625 10.8333C10.625 10.6262 10.7929 10.4583 11 10.4583C11.2071 10.4583 11.375 10.6262 11.375 10.8333C11.375 11.0254 11.5879 11.2917 12 11.2917C12.4121 11.2917 12.625 11.0254 12.625 10.8333C12.625 10.6413 12.4121 10.375 12 10.375C11.3075 10.375 10.625 9.89513 10.625 9.16667C10.625 8.5715 11.0806 8.14227 11.625 8.00512V8C11.625 7.79289 11.7929 7.625 12 7.625Z" fill="#DDA0DD"/>
<path id="icon-background"  d="M4 10.1433C4 5.64588 7.58172 2 12 2C16.4183 2 20 5.64588 20 10.1433C20 14.6055 14 18.5 13.4629 21.6744C12.5 22.5 11.5 22.5 10.5371 21.6744C10 18.5 4 14.6055 4 10.1433Z" stroke="#DDA0DD" stroke-width="1.5"/>
</g>
</svg>
