<svg width="24" height="24" viewBox="0 0 24 24" fill="none" xmlns="http://www.w3.org/2000/svg">
<g id="Real Estate">
<g id="Vector">
<path d="M15.25 4.5H14C13.8619 4.5 13.75 4.61193 13.75 4.75V4.77945L15.5 6.17945V4.75C15.5 4.61193 15.3881 4.5 15.25 4.5Z" fill="#FFA500"/>
<path fill-rule="evenodd" clip-rule="evenodd" d="M11.375 7.75C11.375 7.40482 11.6548 7.125 12 7.125C12.3452 7.125 12.625 7.40482 12.625 7.75C12.625 8.09518 12.3452 8.375 12 8.375C11.6548 8.375 11.375 8.09518 11.375 7.75Z" fill="#FFA500"/>
<path fill-rule="evenodd" clip-rule="evenodd" d="M16.375 8.48023L16.7658 8.79283C16.9275 8.9222 17.1635 8.89598 17.2928 8.73426C17.4222 8.57254 17.396 8.33655 17.2343 8.20717L13.1713 4.95681C12.4865 4.40898 11.5135 4.40898 10.8287 4.95681L6.76575 8.20717C6.60403 8.33655 6.57781 8.57254 6.70719 8.73426C6.83657 8.89598 7.07255 8.9222 7.23427 8.79283L7.62501 8.48023V13.625H7.00001C6.79291 13.625 6.62501 13.7929 6.62501 14C6.62501 14.2071 6.79291 14.375 7.00001 14.375H17C17.2071 14.375 17.375 14.2071 17.375 14C17.375 13.7929 17.2071 13.625 17 13.625H16.375V8.48023ZM10.625 7.75C10.625 6.99061 11.2406 6.375 12 6.375C12.7594 6.375 13.375 6.99061 13.375 7.75C13.375 8.50939 12.7594 9.125 12 9.125C11.2406 9.125 10.625 8.50939 10.625 7.75ZM12.0247 9.625C12.3571 9.62498 12.6436 9.62496 12.8729 9.6558C13.1188 9.68885 13.3544 9.76338 13.5455 9.9545C13.7366 10.1456 13.8112 10.3813 13.8442 10.6271C13.8731 10.8421 13.8749 11.1073 13.875 11.4135C13.875 11.4339 13.875 11.4545 13.875 11.4753L13.875 13.625H13.125V11.5C13.125 11.1358 13.1242 10.9005 13.1009 10.727C13.079 10.5644 13.0437 10.5134 13.0152 10.4848C12.9866 10.4563 12.9357 10.421 12.773 10.3991C12.5996 10.3758 12.3642 10.375 12 10.375C11.6359 10.375 11.4005 10.3758 11.227 10.3991C11.0644 10.421 11.0134 10.4563 10.9848 10.4848C10.9563 10.5134 10.921 10.5644 10.8991 10.727C10.8758 10.9005 10.875 11.1358 10.875 11.5V13.625H10.125L10.125 11.4753C10.125 11.1429 10.125 10.8565 10.1558 10.6271C10.1889 10.3813 10.2634 10.1456 10.4545 9.9545C10.6456 9.76338 10.8813 9.68885 11.1271 9.6558C11.3565 9.62496 11.6429 9.62498 11.9753 9.625H12.0247Z" fill="#FFA500"/>
<path fill-rule="evenodd" clip-rule="evenodd" d="M11.375 7.75C11.375 7.40482 11.6548 7.125 12 7.125C12.3452 7.125 12.625 7.40482 12.625 7.75C12.625 8.09518 12.3452 8.375 12 8.375C11.6548 8.375 11.375 8.09518 11.375 7.75Z" fill="#FFA500"/>
</g>
<path id="icon-background"  d="M4 10.1433C4 5.64588 7.58172 2 12 2C16.4183 2 20 5.64588 20 10.1433C20 14.6055 14 18.5 13.4629 21.6744C12.5 22.5 11.5 22.5 10.5371 21.6744C10 18.5 4 14.6055 4 10.1433Z" stroke="#FFA500" stroke-width="1.5"/>
</g>
</svg>
