<?xml version="1.0" encoding="utf-8"?>
<svg fill="none" height="24" viewBox="0 0 24 24" width="24" xmlns="http://www.w3.org/2000/svg">
<g id="Science&amp;ProfessionalServices">
<g id="icon-symbol">
<path clip-rule="evenodd" d="M7.38704 10.2407C7.53516 10.389 7.53502 10.6293 7.38672 10.7774L7.30889 10.8551C7.24242 10.9215 7.24242 11.029 7.30889 11.0954C7.37562 11.162 7.48401 11.162 7.55074 11.0954L8.4068 10.2404C8.5551 10.0922 8.7954 10.0924 8.94352 10.2407C9.09164 10.389 9.09149 10.6293 8.94319 10.7774L8.08713 11.6324C7.72405 11.9951 7.13558 11.9951 6.7725 11.6324C6.40917 11.2695 6.40917 10.681 6.7725 10.3181L6.85032 10.2404C6.99862 10.0922 7.23892 10.0924 7.38704 10.2407ZM9.84333 10.7448C9.99154 10.893 9.99154 11.1333 9.84333 11.2815L8.77212 12.3527C8.62391 12.5009 8.38361 12.5009 8.2354 12.3527C8.08719 12.2045 8.08719 11.9642 8.2354 11.816L9.30661 10.7448C9.45482 10.5966 9.69511 10.5966 9.84333 10.7448ZM11.2479 12.1477C11.3961 12.2959 11.3961 12.5362 11.2479 12.6844L10.184 13.7483C10.0358 13.8965 9.79551 13.8965 9.6473 13.7483C9.49909 13.6 9.49909 13.3598 9.6473 13.2115L10.7112 12.1477C10.8594 11.9995 11.0997 11.9995 11.2479 12.1477ZM9.6486 12.348C9.79515 12.4978 9.79247 12.7381 9.64262 12.8847L8.77754 13.7307C8.62769 13.8772 8.38741 13.8746 8.24085 13.7247C8.0943 13.5749 8.09697 13.3346 8.24683 13.188L9.11191 12.342C9.26176 12.1955 9.50204 12.1981 9.6486 12.348ZM11.7406 13.059C11.8887 13.2073 11.8885 13.4476 11.7402 13.5957L10.8842 14.4507C10.8177 14.5171 10.8177 14.6246 10.8842 14.691C10.9509 14.7576 11.0593 14.7576 11.126 14.691L11.2038 14.6133C11.3521 14.4651 11.5924 14.4653 11.7406 14.6136C11.8887 14.7619 11.8885 15.0022 11.7402 15.1503L11.6624 15.228C11.2993 15.5907 10.7109 15.5907 10.3478 15.228C9.98445 14.8651 9.98445 14.2766 10.3478 13.9137L11.2038 13.0587C11.3521 12.9106 11.5924 12.9107 11.7406 13.059Z" fill="#B91C1C" fill-rule="evenodd"/>
<path d="M11.4232 6.70456L10.3293 7.79512C10.1283 7.99556 9.94381 8.17944 9.79816 8.34566C9.70462 8.4524 9.61115 8.56923 9.53197 8.69833L9.52131 8.6877C9.50108 8.66753 9.49095 8.65744 9.4808 8.64758C9.29067 8.4631 9.06703 8.31644 8.82184 8.21542C8.80874 8.21002 8.79544 8.20475 8.76884 8.19421L8.60598 8.12968C8.38535 8.04225 8.32654 7.75822 8.49443 7.59085C8.97625 7.11049 9.55475 6.53376 9.83393 6.41792C10.0801 6.31576 10.3461 6.28177 10.6027 6.31968C10.8377 6.35441 11.06 6.47515 11.4232 6.70456Z" fill="#B91C1C"/>
<path d="M13.2909 12.4466C13.3791 12.5361 13.4376 12.5993 13.4905 12.6668C13.5603 12.7559 13.6228 12.8505 13.6772 12.9497C13.7385 13.0614 13.786 13.1808 13.8812 13.4194C13.9586 13.6136 14.2159 13.665 14.3653 13.516L14.4014 13.48C14.8832 12.9996 15.4617 12.4228 15.5779 12.1445C15.6804 11.899 15.7145 11.6339 15.6765 11.3781C15.6416 11.1438 15.5205 10.9221 15.2905 10.5602L14.193 11.6544C13.9874 11.8594 13.7988 12.0474 13.6283 12.1946C13.5262 12.2829 13.4143 12.3711 13.2909 12.4466Z" fill="#B91C1C"/>
<path clip-rule="evenodd" d="M13.7511 11.1837L16.266 8.67644C16.6281 8.31536 16.8092 8.13482 16.9046 7.90523C17 7.67565 17 7.42033 17 6.90968V6.66573C17 5.8805 17 5.48788 16.7553 5.24394C16.5106 5 16.1168 5 15.3292 5H15.0846C14.5724 5 14.3163 5 14.086 5.0951C13.8557 5.19019 13.6746 5.37074 13.3125 5.73182L10.7976 8.23908C10.3744 8.66101 10.112 8.92263 10.0104 9.17531C9.97828 9.25515 9.96223 9.3341 9.96223 9.41693C9.96223 9.76192 10.2407 10.0395 10.7976 10.5948L10.8725 10.6694L11.7493 9.77953C11.8743 9.65263 12.0786 9.65112 12.2055 9.77616C12.3324 9.9012 12.3339 10.1054 12.2088 10.2323L11.3294 11.1249L11.3883 11.1837C11.9452 11.7389 12.2237 12.0166 12.5697 12.0166C12.6462 12.0166 12.7193 12.003 12.7929 11.9759C13.0524 11.8803 13.3173 11.6163 13.7511 11.1837ZM14.9326 8.23927C14.6064 8.56452 14.0774 8.56452 13.7512 8.23927C13.4249 7.91401 13.4249 7.38667 13.7512 7.06142C14.0774 6.73617 14.6064 6.73617 14.9326 7.06142C15.2588 7.38667 15.2588 7.91401 14.9326 8.23927Z" fill="#B91C1C" fill-rule="evenodd"/>
</g>
<path d="M4 10.1433C4 5.64588 7.58172 2 12 2C16.4183 2 20 5.64588 20 10.1433C20 14.6055 14 18.5 13.4629 21.6744C12.5 22.5 11.5 22.5 10.5371 21.6744C10 18.5 4 14.6055 4 10.1433Z" id="icon-background" opacity="0.5" stroke="#B91C1C" stroke-width="1.5"/>
</g>
</svg>