<?xml version="1.0" encoding="utf-8"?>
<svg fill="none" height="24" viewBox="0 0 24 24" width="24" xmlns="http://www.w3.org/2000/svg">
<g id="Admin&amp;SupportServices ">
<g id="icon-symbol">
<path d="M10 5.75C10 5.33579 10.3358 5 10.75 5H13.25C13.6642 5 14 5.33579 14 5.75V6.25C14 6.66421 13.6642 7 13.25 7H10.75C10.3358 7 10 6.66421 10 6.25V5.75Z" fill="#F59E0B"/>
<path clip-rule="evenodd" d="M9.25 6.01831C8.62105 6.0536 8.22399 6.15382 7.93934 6.43847C7.5 6.87781 7.5 7.58492 7.5 8.99913V11.9991C7.5 13.4133 7.5 14.1205 7.93934 14.5598C8.37868 14.9991 9.08579 14.9991 10.5 14.9991H13.5C14.9142 14.9991 15.6213 14.9991 16.0607 14.5598C16.5 14.1205 16.5 13.4133 16.5 11.9991V8.99913C16.5 7.58492 16.5 6.87781 16.0607 6.43847C15.776 6.15382 15.379 6.0536 14.75 6.01831V6.25C14.75 7.07843 14.0784 7.75 13.25 7.75H10.75C9.92157 7.75 9.25 7.07843 9.25 6.25V6.01831ZM9.125 9.25C9.125 9.04289 9.29289 8.875 9.5 8.875H14.5C14.7071 8.875 14.875 9.04289 14.875 9.25C14.875 9.45711 14.7071 9.625 14.5 9.625H9.5C9.29289 9.625 9.125 9.45711 9.125 9.25ZM9.625 11C9.625 10.7929 9.79289 10.625 10 10.625H14C14.2071 10.625 14.375 10.7929 14.375 11C14.375 11.2071 14.2071 11.375 14 11.375H10C9.79289 11.375 9.625 11.2071 9.625 11ZM10.125 12.75C10.125 12.5429 10.2929 12.375 10.5 12.375H13.5C13.7071 12.375 13.875 12.5429 13.875 12.75C13.875 12.9571 13.7071 13.125 13.5 13.125H10.5C10.2929 13.125 10.125 12.9571 10.125 12.75Z" fill="#F59E0B" fill-rule="evenodd"/>
</g>
<path d="M4 10.1433C4 5.64588 7.58172 2 12 2C16.4183 2 20 5.64588 20 10.1433C20 14.6055 14 18.5 13.4629 21.6744C12.5 22.5 11.5 22.5 10.5371 21.6744C10 18.5 4 14.6055 4 10.1433Z" id="icon-background" opacity="0.5" stroke="#F59E0B" stroke-width="1.5"/>
</g>
</svg>