<?xml version="1.0" encoding="utf-8"?>
<svg fill="none" height="24" viewBox="0 0 24 24" width="24" xmlns="http://www.w3.org/2000/svg">
<g id="Government&amp;Defence">
<path clip-rule="evenodd" d="M8.3069 8.27239L8.09375 9.125H7C6.79289 9.125 6.625 9.29289 6.625 9.5C6.625 9.70711 6.79289 9.875 7 9.875H17C17.2071 9.875 17.375 9.70711 17.375 9.5C17.375 9.29289 17.2071 9.125 17 9.125H15.9062L15.6931 8.27239C15.4203 7.18105 15.2838 6.63538 14.877 6.31769C14.4701 6 13.9076 6 12.7827 6H11.2173C10.0924 6 9.52994 6 9.12305 6.31769C8.71615 6.63538 8.57974 7.18105 8.3069 8.27239ZM9.25 14.5C10.0616 14.5 10.7441 13.9475 10.9421 13.1982L11.4969 12.9208C11.8136 12.7624 12.1864 12.7624 12.5031 12.9208L13.0579 13.1982C13.2559 13.9475 13.9384 14.5 14.75 14.5C15.7165 14.5 16.5 13.7165 16.5 12.75C16.5 11.7835 15.7165 11 14.75 11C13.92 11 13.2249 11.5779 13.0452 12.3533L12.8385 12.25C12.3107 11.986 11.6893 11.986 11.1615 12.25L10.9548 12.3533C10.7751 11.5779 10.08 11 9.25 11C8.2835 11 7.5 11.7835 7.5 12.75C7.5 13.7165 8.2835 14.5 9.25 14.5Z" fill="#6D28D9" fill-rule="evenodd" id="icon-symbol"/>
<path d="M4 10.1433C4 5.64588 7.58172 2 12 2C16.4183 2 20 5.64588 20 10.1433C20 14.6055 14 18.5 13.4629 21.6744C12.5 22.5 11.5 22.5 10.5371 21.6744C10 18.5 4 14.6055 4 10.1433Z" id="icon-background" opacity="0.5" stroke="#6D28D9" stroke-width="1.5"/>
</g>
</svg>