<svg width="24" height="24" viewBox="0 0 24 24" fill="none" xmlns="http://www.w3.org/2000/svg">
<g id="Arts&#38;Recreation">
<path id="icon-symbol" fill-rule="evenodd" clip-rule="evenodd" d="M11.4234 14.9671C8.93356 14.6812 7 12.5664 7 10C7 7.23858 9.23858 5 12 5C14.7614 5 17 7.23858 17 10C17 12.5783 15.3586 12.3662 13.9568 12.1851C13.1482 12.0807 12.4193 11.9865 12.1309 12.444C11.9337 12.7568 12.1469 13.1469 12.4084 13.4084C12.7351 13.7351 12.7351 14.2649 12.4084 14.5916C12.1469 14.8531 11.7908 15.0093 11.4234 14.9671ZM11.5425 7.49988C11.5425 7.91409 11.2067 8.24988 10.7925 8.24988C10.3783 8.24988 10.0425 7.91409 10.0425 7.49988C10.0425 7.08566 10.3783 6.74988 10.7925 6.74988C11.2067 6.74988 11.5425 7.08566 11.5425 7.49988ZM9.25 10.5C9.66421 10.5 10 10.1642 10 9.74999C10 9.33578 9.66421 8.99999 9.25 8.99999C8.83579 8.99999 8.5 9.33578 8.5 9.74999C8.5 10.1642 8.83579 10.5 9.25 10.5ZM14.75 10.5C15.1642 10.5 15.5 10.1642 15.5 9.74999C15.5 9.33578 15.1642 8.99999 14.75 8.99999C14.3358 8.99999 14 9.33578 14 9.74999C14 10.1642 14.3358 10.5 14.75 10.5ZM13.25 8.24999C13.6642 8.24999 14 7.91421 14 7.49999C14 7.08578 13.6642 6.74999 13.25 6.74999C12.8358 6.74999 12.5 7.08578 12.5 7.49999C12.5 7.91421 12.8358 8.24999 13.25 8.24999Z" fill="#8A2BE2"/>
<path id="icon-background"  d="M4 10.1433C4 5.64588 7.58172 2 12 2C16.4183 2 20 5.64588 20 10.1433C20 14.6055 14 18.5 13.4629 21.6744C12.5 22.5 11.5 22.5 10.5371 21.6744C10 18.5 4 14.6055 4 10.1433Z" stroke="white" stroke-width="1.5"/>
</g>
</svg>
