<svg width="24" height="24" viewBox="0 0 24 24" fill="none" xmlns="http://www.w3.org/2000/svg">
<g id="OtherServices">
<path id="icon-symbol3" d="M9 8.25C9 7.78269 9 7.54904 9.10048 7.375C9.16631 7.26099 9.26099 7.16631 9.375 7.10048C9.54904 7 9.78269 7 10.25 7H13.75C14.2173 7 14.451 7 14.625 7.10048C14.739 7.16631 14.8337 7.26099 14.8995 7.375C15 7.54904 15 7.78269 15 8.25C15 8.71731 15 8.95096 14.8995 9.125C14.8337 9.23901 14.739 9.33369 14.625 9.39952C14.451 9.5 14.2173 9.5 13.75 9.5H10.25C9.78269 9.5 9.54904 9.5 9.375 9.39952C9.26099 9.33369 9.16631 9.23901 9.10048 9.125C9 8.95096 9 8.71731 9 8.25Z" fill="white"/>
<path id="icon-symbol2" d="M8.50107 7.96954C8.42373 8.03824 8.375 8.13843 8.375 8.25001C8.375 8.36159 8.42373 8.46178 8.50107 8.53048C8.49999 8.4481 8.5 8.36103 8.5 8.27013V8.2299C8.5 8.139 8.49999 8.05193 8.50107 7.96954Z" fill="#FFDE59"/>
<path id="icon-symbol1" d="M11 14V16C11 16.4714 11 16.7071 11.1464 16.8536C11.2929 17 11.5286 17 12 17C12.4714 17 12.7071 17 12.8536 16.8536C13 16.7071 13 16.4714 13 16V14C13 13.5286 13 13.2929 12.8536 13.1464C12.7071 13 12.4714 13 12 13C11.5286 13 11.2929 13 11.1464 13.1464C11 13.2929 11 13.5286 11 14Z" fill="#FFDE59"/>
<path id="icon-symbol2_2" d="M15.4971 8.625H15.5225C15.7498 8.625 15.9024 8.62519 16.0207 8.6329C16.1358 8.6404 16.192 8.65388 16.229 8.66845C16.3904 8.73198 16.5181 8.85968 16.5816 9.02104C16.5962 9.05804 16.6097 9.11429 16.6172 9.22939C16.6249 9.34765 16.6251 9.50022 16.6251 9.72755C16.6251 10.1462 16.6198 10.2609 16.5894 10.347C16.5372 10.4946 16.4316 10.6173 16.2933 10.6907C16.2127 10.7336 16.1001 10.7558 15.6861 10.8179L13.6244 11.1272C13.238 11.1851 12.9137 11.2337 12.6575 11.3058C12.3859 11.3821 12.1457 11.4962 11.9582 11.7139C11.7666 11.9364 11.6875 12.2028 11.6534 12.5031C11.7555 12.5 11.8634 12.5 11.9728 12.5H12.0272C12.1597 12.5 12.2898 12.5 12.4103 12.5055C12.4353 12.3451 12.474 12.2643 12.5265 12.2033C12.5812 12.1398 12.6652 12.0827 12.8605 12.0278C13.0659 11.97 13.3431 11.9277 13.759 11.8654L15.8569 11.5507C16.1823 11.5022 16.4357 11.4644 16.6452 11.3531C16.9494 11.1914 17.1819 10.9215 17.2966 10.5967C17.3756 10.373 17.3754 10.1168 17.3751 9.78779L17.3751 9.71549C17.3751 9.50331 17.3751 9.32617 17.3656 9.1806C17.3557 9.02912 17.3344 8.88586 17.2795 8.74629C17.1397 8.39131 16.8588 8.11035 16.5038 7.97059C16.3642 7.91564 16.2209 7.89436 16.0695 7.88448C15.9239 7.87499 15.7467 7.875 15.5346 7.875H15.4971C15.5 7.98434 15.5 8.1034 15.5 8.22988V8.27012C15.5 8.3966 15.5 8.51566 15.4971 8.625Z" fill="#FFDE59"/>
<path id="icon-background"  d="M4 10.1433C4 5.64588 7.58172 2 12 2C16.4183 2 20 5.64588 20 10.1433C20 14.6055 14 18.5 13.4629 21.6744C12.5 22.5 11.5 22.5 10.5371 21.6744C10 18.5 4 14.6055 4 10.1433Z" stroke="#FFDE59" stroke-width="1.5"/>
</g>
</svg>
