<svg width="24" height="24" viewBox="0 0 24 24" fill="none" xmlns="http://www.w3.org/2000/svg">
<g id="HouseholdServices">
<path id="icon-symbol2" fill-rule="evenodd" clip-rule="evenodd" d="M10.625 6C10.625 5.24061 11.2406 4.625 12 4.625C12.7594 4.625 13.375 5.24061 13.375 6C13.375 6.75939 12.7594 7.375 12 7.375C11.2406 7.375 10.625 6.75939 10.625 6Z" fill="#32CD32"/>
<path id="icon-symbol2_2" d="M10.1115 9.78717L9.0239 9.42462C8.71103 9.32033 8.5 9.02754 8.5 8.69775C8.5 8.20997 8.94977 7.84637 9.42673 7.94857L10.3755 8.15189C10.4283 8.16319 10.4546 8.16884 10.4808 8.17425C11.483 8.38155 12.517 8.38155 13.5192 8.17425C13.5454 8.16884 13.5717 8.16319 13.6245 8.15189L14.5733 7.94857C15.0502 7.84637 15.5 8.20997 15.5 8.69775C15.5 9.02754 15.289 9.32033 14.9761 9.42462L13.8885 9.78717C13.757 9.83099 13.6913 9.85289 13.6419 9.8834C13.4736 9.98729 13.3823 10.1806 13.4091 10.3766C13.417 10.4342 13.4419 10.4988 13.4916 10.6281L14.115 12.249C14.3006 12.7314 13.9444 13.25 13.4275 13.25C13.1631 13.25 12.9191 13.1084 12.7879 12.8788L12 11.5L11.2121 12.8788C11.0809 13.1084 10.8369 13.25 10.5725 13.25C10.0556 13.25 9.69945 12.7314 9.88502 12.249L10.5084 10.6281C10.5581 10.4988 10.583 10.4342 10.5909 10.3766C10.6177 10.1806 10.5264 9.98729 10.3581 9.8834C10.3087 9.85289 10.243 9.83099 10.1115 9.78717Z" fill="#32CD32"/>
<path id="icon-symbol1" d="M12 15C14.7614 15 17 13.9926 17 12.75C17 11.8891 15.9255 11.1411 14.347 10.7628L14.815 11.9796C15.1895 12.9533 14.4707 13.9999 13.4275 13.9999C12.894 13.9999 12.4014 13.714 12.1367 13.2508L12 13.0115L11.8633 13.2508C11.5986 13.714 11.106 13.9999 10.5725 13.9999C9.52925 13.9999 8.81049 12.9533 9.18501 11.9796L9.65301 10.7628C8.07453 11.1411 7 11.8891 7 12.75C7 13.9926 9.23858 15 12 15Z" fill="white"/>
<path id="icon-background"  d="M4 10.1433C4 5.64588 7.58172 2 12 2C16.4183 2 20 5.64588 20 10.1433C20 14.6055 14 18.5 13.4629 21.6744C12.5 22.5 11.5 22.5 10.5371 21.6744C10 18.5 4 14.6055 4 10.1433Z" stroke="#32CD32" stroke-width="1.5"/>
</g>
</svg>
