<svg width="24" height="24" viewBox="0 0 24 24" fill="none" xmlns="http://www.w3.org/2000/svg">
<g id="InternationalOrganizations">
<g id="Vector">
<path d="M10.1936 7.53958C10.1129 7.40585 10.0281 7.28099 9.9439 7.1673C10.5212 6.74757 11.2317 6.5 12 6.5C12.66 6.5 13.2773 6.68268 13.8042 7.00024C13.7966 7.04479 13.7858 7.09527 13.771 7.15146C13.7181 7.35102 13.6351 7.54147 13.5644 7.65265C13.5401 7.69099 13.4399 7.7889 13.2582 7.92427C13.1772 7.98462 13.0872 8.04004 12.9802 8.10405L12.943 8.12622C12.8492 8.18208 12.742 8.24599 12.6385 8.31686C12.3945 8.48404 12.1404 8.70999 11.9696 9.07537C11.846 9.33964 11.8545 9.59701 11.9091 9.80343C11.927 9.87082 11.9367 9.93866 11.9369 9.99826C11.9369 10.0168 11.9297 10.0464 11.8883 10.081C11.8438 10.1182 11.7811 10.1406 11.7248 10.14C11.1863 10.1339 10.7615 9.68788 10.6999 8.97635C10.653 8.4356 10.432 7.93441 10.1936 7.53958Z" fill="#4682B4"/>
<path d="M14.3259 12.2545C14.4581 12.2531 14.5821 12.2444 14.6985 12.2291C14.2596 12.7597 13.6673 13.1588 12.9895 13.3582C12.9663 13.1675 12.9816 12.9383 13.0939 12.7265C13.1899 12.5457 13.4329 12.4098 13.7608 12.3292C13.9114 12.2922 14.0547 12.2732 14.1611 12.2637C14.2138 12.2589 14.2563 12.2566 14.2845 12.2555C14.2986 12.255 14.3091 12.2547 14.3154 12.2546L14.3215 12.2545L14.3259 12.2545Z" fill="#4682B4"/>
<path d="M8.5 10C8.5 9.14031 8.80995 8.35302 9.32419 7.74377C9.37478 7.81553 9.42548 7.89248 9.47456 7.97377C9.67528 8.30619 9.83119 8.68183 9.86299 9.04886C9.94837 10.0344 10.6037 10.9673 11.7152 10.9799C12.1961 10.9854 12.7784 10.6239 12.7769 9.99617C12.7765 9.85242 12.7539 9.71234 12.7211 9.58844C12.7053 9.5288 12.7076 9.4801 12.7304 9.43124C12.8157 9.24893 12.9416 9.12749 13.1133 9.00982C13.1933 8.95501 13.2764 8.90543 13.3726 8.84807L13.4111 8.82507C13.5188 8.76073 13.6415 8.68622 13.7601 8.59785C13.9325 8.46939 14.1553 8.28897 14.2734 8.10311C14.3669 7.956 14.4535 7.76735 14.5206 7.5717C15.127 8.20106 15.5 9.05698 15.5 10C15.5 10.2662 15.4703 10.5254 15.414 10.7745C15.3803 10.8743 15.3383 10.9676 15.2627 11.0658C15.1441 11.2196 14.9065 11.4084 14.3171 11.4145L14.3141 11.4145L14.2997 11.4147C14.2879 11.4149 14.2716 11.4154 14.2513 11.4162C14.2109 11.4178 14.1544 11.4209 14.086 11.427C13.9504 11.4392 13.7632 11.4636 13.5603 11.5135C13.1812 11.6067 12.6249 11.8184 12.3519 12.3328C12.1366 12.7387 12.1123 13.1553 12.1608 13.4964C12.1075 13.4988 12.0539 13.5 12 13.5C10.067 13.5 8.5 11.933 8.5 10Z" fill="#4682B4"/>
</g>
<path id="Vector_2" fill-rule="evenodd" clip-rule="evenodd" d="M15.0017 5.74991C15.1399 5.59559 15.3769 5.58246 15.5313 5.72058C16.6623 6.7329 17.375 8.20522 17.375 9.8435C17.375 12.7192 15.1806 15.0823 12.375 15.3498V15.625H13C13.2071 15.625 13.375 15.7929 13.375 16C13.375 16.2071 13.2071 16.375 13 16.375H11C10.7929 16.375 10.625 16.2071 10.625 16C10.625 15.7929 10.7929 15.625 11 15.625H11.625V15.3708C10.0746 15.3105 8.68768 14.6118 7.72058 13.5313C7.58246 13.3769 7.59559 13.1399 7.74991 13.0017C7.90423 12.8636 8.14131 12.8768 8.27943 13.0311C9.15549 14.0099 10.4274 14.625 11.8435 14.625C14.4843 14.625 16.625 12.4843 16.625 9.8435C16.625 8.42741 16.0099 7.15549 15.0311 6.27943C14.8768 6.14131 14.8636 5.90423 15.0017 5.74991Z" fill="#4682B4"/>
<path id="icon-background"  d="M4 10.1433C4 5.64588 7.58172 2 12 2C16.4183 2 20 5.64588 20 10.1433C20 14.6055 14 18.5 13.4629 21.6744C12.5 22.5 11.5 22.5 10.5371 21.6744C10 18.5 4 14.6055 4 10.1433Z" stroke="#4682B4" stroke-width="1.5"/>
</g>
</svg>
