<svg width="24" height="24" viewBox="0 0 24 24" fill="none" xmlns="http://www.w3.org/2000/svg">
<g id="Healthcare&#38;SocialWork">
<path id="icon-symbol" fill-rule="evenodd" clip-rule="evenodd" d="M16.75 7.25C16.75 6.54777 16.75 6.19665 16.5815 5.94443C16.5085 5.83524 16.4148 5.74149 16.3056 5.66853C16.085 5.52112 15.7887 5.50265 15.248 5.50033C15.25 5.64603 15.25 5.79828 15.25 5.95526L15.25 6V6.625H15.75C15.9571 6.625 16.125 6.79289 16.125 7C16.125 7.20711 15.9571 7.375 15.75 7.375H15.25V8.125H15.75C15.9571 8.125 16.125 8.29289 16.125 8.5C16.125 8.70711 15.9571 8.875 15.75 8.875H15.25V9.625H15.75C15.9571 9.625 16.125 9.79289 16.125 10C16.125 10.2071 15.9571 10.375 15.75 10.375H15.25V13.625H14.5V6C14.5 5.05719 14.5 4.58579 14.2071 4.29289C13.9142 4 13.4428 4 12.5 4H11.5C10.5572 4 10.0858 4 9.79289 4.29289C9.5 4.58579 9.5 5.05719 9.5 6V13.625H8.75V10.375H8.25C8.04289 10.375 7.875 10.2071 7.875 10C7.875 9.79289 8.04289 9.625 8.25 9.625H8.75V8.875H8.25C8.04289 8.875 7.875 8.70711 7.875 8.5C7.875 8.29289 8.04289 8.125 8.25 8.125H8.75V7.375H8.25C8.04289 7.375 7.875 7.20711 7.875 7C7.875 6.79289 8.04289 6.625 8.25 6.625H8.75V6L8.75 5.95525C8.74998 5.79827 8.74996 5.64603 8.75202 5.50033C8.21131 5.50265 7.91504 5.52112 7.69443 5.66853C7.58524 5.74149 7.49149 5.83524 7.41853 5.94443C7.25 6.19665 7.25 6.54777 7.25 7.25V13.625H7C6.79289 13.625 6.625 13.7929 6.625 14C6.625 14.2071 6.79289 14.375 7 14.375H17C17.2071 14.375 17.375 14.2071 17.375 14C17.375 13.7929 17.2071 13.625 17 13.625H16.75V7.25ZM12 5.125C12.2071 5.125 12.375 5.29289 12.375 5.5V6.125H13C13.2071 6.125 13.375 6.29289 13.375 6.5C13.375 6.70711 13.2071 6.875 13 6.875H12.375V7.5C12.375 7.70711 12.2071 7.875 12 7.875C11.7929 7.875 11.625 7.70711 11.625 7.5V6.875H11C10.7929 6.875 10.625 6.70711 10.625 6.5C10.625 6.29289 10.7929 6.125 11 6.125H11.625V5.5C11.625 5.29289 11.7929 5.125 12 5.125ZM10.625 9C10.625 8.79289 10.7929 8.625 11 8.625H13C13.2071 8.625 13.375 8.79289 13.375 9C13.375 9.20711 13.2071 9.375 13 9.375H11C10.7929 9.375 10.625 9.20711 10.625 9ZM10.625 10.5C10.625 10.2929 10.7929 10.125 11 10.125H13C13.2071 10.125 13.375 10.2929 13.375 10.5C13.375 10.7071 13.2071 10.875 13 10.875H11C10.7929 10.875 10.625 10.7071 10.625 10.5ZM12 12.125C12.2071 12.125 12.375 12.2929 12.375 12.5V13.625H11.625V12.5C11.625 12.2929 11.7929 12.125 12 12.125Z" fill="#992F7B"/>
<path id="icon-background" opacity="0.5" d="M4 10.1433C4 5.64588 7.58172 2 12 2C16.4183 2 20 5.64588 20 10.1433C20 14.6055 14 18.5 13.4629 21.6744C12.5 22.5 11.5 22.5 10.5371 21.6744C10 18.5 4 14.6055 4 10.1433Z" stroke="#CC3EA4" stroke-width="1.5"/>
</g>
</svg>
