<?xml version="1.0" encoding="utf-8"?>
<svg fill="none" height="24" viewBox="0 0 24 24" width="24" xmlns="http://www.w3.org/2000/svg">
<g id="Agriculture&amp;Fishing">
<path d="M4 10.1433C4 5.64588 7.58172 2 12 2C16.4183 2 20 5.64588 20 10.1433C20 14.6055 14 18.5 13.4629 21.6744C12.5 22.5 11.5 22.5 10.5371 21.6744C10 18.5 4 14.6055 4 10.1433Z" id="icon-background" opacity="0.5" stroke="#166534" stroke-width="1.5"/>
<g id="icon-symbol">
<path d="M11.625 5.0413C11.5033 5.06843 11.3838 5.10892 11.2685 5.16278C9.27666 6.0938 8 8.69727 8 10.9284C8 13.0483 9.5917 14.7899 11.625 14.9823V5.0413Z" fill="#166534"/>
<path d="M12.375 14.9823C14.4083 14.7899 16 13.0483 16 10.9284C16 10.7253 15.9894 10.5193 15.9687 10.3116L12.375 13.9053V14.9823Z" fill="#166534"/>
<path d="M15.1298 7.58983C14.9354 7.22742 14.7111 6.88408 14.46 6.57035L12.375 8.65533V10.3447L15.1298 7.58983Z" fill="#166534"/>
<path d="M13.9542 6.01545C13.5866 5.66283 13.1769 5.37098 12.7315 5.16278C12.6162 5.10892 12.4967 5.06843 12.375 5.0413V7.59467L13.9542 6.01545Z" fill="#166534"/>
<path d="M15.4682 8.31211L12.375 11.4053V12.8447L15.75 9.46967L15.816 9.40371C15.729 9.03486 15.6123 8.66817 15.4682 8.31211Z" fill="#166534"/>
</g>
</g>
</svg>