<svg width="24" height="24" viewBox="0 0 24 24" fill="none" xmlns="http://www.w3.org/2000/svg">
<g id="Mining&#38;Quarrying">
<path id="icon-background" opacity="0.5" d="M4 10.1433C4 5.64588 7.58172 2 12 2C16.4183 2 20 5.64588 20 10.1433C20 14.6055 14 18.5 13.4629 21.6744C12.5 22.5 11.5 22.5 10.5371 21.6744C10 18.5 4 14.6055 4 10.1433Z" stroke="#10B981" stroke-width="1.5"/>
<path id="icon-symbol2" d="M16.723 7.5345C16.3171 6.50415 15.4959 5.68289 14.4655 5.27698C13.6947 4.97334 13 5.67157 13 6.5V8.5C13 8.77614 13.2239 9 13.5 9H15.5C16.3284 9 17.0267 8.30527 16.723 7.5345Z" fill="#10B981"/>
<path id="icon-symbol1" d="M9.11104 6.30052C9.33333 6.152 9.56672 6.02318 9.80855 5.91488C10.4945 5.60769 10.8375 5.4541 11.2937 5.7497C11.75 6.0453 11.75 6.5302 11.75 7.5V8.25C11.75 9.19281 11.75 9.66422 12.0429 9.95711C12.3358 10.25 12.8072 10.25 13.75 10.25H14.5C15.4698 10.25 15.9547 10.25 16.2503 10.7063C16.5459 11.1625 16.3923 11.5055 16.0851 12.1915C15.9768 12.4333 15.848 12.6667 15.6995 12.889C15.1775 13.6701 14.4357 14.2789 13.5677 14.6384C12.6998 14.9979 11.7447 15.092 10.8233 14.9087C9.90191 14.7255 9.05554 14.2731 8.39125 13.6088C7.72695 12.9445 7.27455 12.0981 7.09127 11.1767C6.90799 10.2553 7.00206 9.30021 7.36157 8.43226C7.72109 7.56431 8.32991 6.82246 9.11104 6.30052Z" fill="#10B981"/>
</g>
</svg>
