<svg width="24" height="24" viewBox="0 0 24 24" fill="none" xmlns="http://www.w3.org/2000/svg">
<path opacity="0.5" d="M4 10.1433C4 5.64588 7.58172 2 12 2C16.4183 2 20 5.64588 20 10.1433C20 14.6055 14 18.5 13.4629 21.6744C12.5 22.5 11.5 22.5 10.5371 21.6744C10 18.5 4 14.6055 4 10.1433Z" stroke="#EF4444" stroke-width="1.5"/>
<g filter="url(#filter0_d_7659_27600)">
<path d="M15.5914 8.45729L13.8594 6.89852C13.366 6.45442 13.1193 6.23238 12.8165 6.11621L12.8125 7.31255C12.8125 8.34374 12.8125 8.85934 13.1329 9.17969C13.4532 9.50005 13.9688 9.50005 15 9.50005H16.5663C16.4077 9.19195 16.1237 8.93634 15.5914 8.45729Z" fill="#EF4444"/>
<path d="M13.25 14.75H11.5C9.85008 14.75 9.02513 14.75 8.51256 14.2374C8.3174 14.0423 8.19654 13.8018 8.1217 13.4878C8.06958 13.269 8.04352 13.1597 8.09375 13.0318C8.14398 12.904 8.2547 12.8302 8.47613 12.6826L8.75 12.5C9.09062 12.2729 9.53438 12.2729 9.875 12.5C10.3292 12.8028 10.9208 12.8028 11.375 12.5C11.7156 12.2729 12.1594 12.2729 12.5 12.5C12.9542 12.8028 13.5458 12.8028 14 12.5C14.3406 12.2729 14.7844 12.2729 15.125 12.5C15.5792 12.8028 16.1708 12.8028 16.625 12.5C16.6731 12.468 16.7371 12.5048 16.7347 12.5625C16.7007 13.3816 16.591 13.8839 16.2374 14.2374C15.7249 14.75 14.8999 14.75 13.25 14.75Z" fill="#EF4444"/>
<path d="M8 9.5C8 7.85008 8 7.02513 8.51256 6.51256C9.02513 6 9.85443 6 11.513 6C11.7782 6 11.9906 6 12.1694 6.00729C12.1635 6.04226 12.1604 6.07793 12.1603 6.114L12.1562 7.35405C12.1562 7.83403 12.1562 8.25822 12.2021 8.60013C12.252 8.97075 12.3664 9.3413 12.6688 9.64373C12.9712 9.94616 13.3418 10.0606 13.7124 10.1104C14.0543 10.1564 14.4785 10.1563 14.9585 10.1563L15 10.1563H16.7471V10.5182C16.7488 10.6112 16.7024 10.6984 16.625 10.75C16.1708 11.0528 15.5792 11.0528 15.125 10.75C14.7844 10.5229 14.3406 10.5229 14 10.75C13.5458 11.0528 12.9542 11.0528 12.5 10.75C12.1594 10.5229 11.7156 10.5229 11.375 10.75C10.9208 11.0528 10.3292 11.0528 9.875 10.75C9.53438 10.5229 9.09062 10.5229 8.75 10.75L8.68018 10.7965C8.38077 10.9962 8.23106 11.096 8.11553 11.0341C8 10.9723 8 10.7924 8 10.4325V9.5Z" fill="#EF4444"/>
</g>
<defs>
<filter id="filter0_d_7659_27600" x="5" y="6" width="14.7471" height="14.75" filterUnits="userSpaceOnUse" color-interpolation-filters="sRGB">
<feFlood flood-opacity="0" result="BackgroundImageFix"/>
<feColorMatrix in="SourceAlpha" type="matrix" values="0 0 0 0 0 0 0 0 0 0 0 0 0 0 0 0 0 0 127 0" result="hardAlpha"/>
<feOffset dy="3"/>
<feGaussianBlur stdDeviation="1.5"/>
<feComposite in2="hardAlpha" operator="out"/>
<feColorMatrix type="matrix" values="0 0 0 0 0 0 0 0 0 0 0 0 0 0 0 0 0 0 0.25 0"/>
<feBlend mode="normal" in2="BackgroundImageFix" result="effect1_dropShadow_7659_27600"/>
<feBlend mode="normal" in="SourceGraphic" in2="effect1_dropShadow_7659_27600" result="shape"/>
</filter>
</defs>
</svg>
