<svg width="24" height="24" viewBox="0 0 24 24" fill="none" xmlns="http://www.w3.org/2000/svg">
<g id="Manufacturing">
<path id="icon-symbol" fill-rule="evenodd" clip-rule="evenodd" d="M16.625 7.25C16.625 6.54777 16.625 6.19665 16.4565 5.94443C16.3835 5.83524 16.2898 5.74149 16.1806 5.66853C15.96 5.52112 15.6637 5.50265 15.123 5.50033C15.125 5.64603 15.125 5.79828 15.125 5.95526L15.125 6V6.625H15.625C15.8321 6.625 16 6.79289 16 7C16 7.20711 15.8321 7.375 15.625 7.375H15.125V8.125H15.625C15.8321 8.125 16 8.29289 16 8.5C16 8.70711 15.8321 8.875 15.625 8.875H15.125V9.625H15.625C15.8321 9.625 16 9.79289 16 10C16 10.2071 15.8321 10.375 15.625 10.375H15.125V13.625H14.375V6C14.375 5.05719 14.375 4.58579 14.0821 4.29289C13.7892 4 13.3178 4 12.375 4H11.375C10.4322 4 9.96079 4 9.66789 4.29289C9.375 4.58579 9.375 5.05719 9.375 6V13.625H8.625V10.375H8.125C7.91789 10.375 7.75 10.2071 7.75 10C7.75 9.79289 7.91789 9.625 8.125 9.625H8.625V8.875H8.125C7.91789 8.875 7.75 8.70711 7.75 8.5C7.75 8.29289 7.91789 8.125 8.125 8.125H8.625V7.375H8.125C7.91789 7.375 7.75 7.20711 7.75 7C7.75 6.79289 7.91789 6.625 8.125 6.625H8.625V6L8.625 5.95525C8.62498 5.79827 8.62496 5.64603 8.62702 5.50033C8.08631 5.50265 7.79004 5.52112 7.56943 5.66853C7.46024 5.74149 7.36649 5.83524 7.29353 5.94443C7.125 6.19665 7.125 6.54777 7.125 7.25V13.625H6.875C6.66789 13.625 6.5 13.7929 6.5 14C6.5 14.2071 6.66789 14.375 6.875 14.375H16.875C17.0821 14.375 17.25 14.2071 17.25 14C17.25 13.7929 17.0821 13.625 16.875 13.625H16.625V7.25ZM10.5 8.875C10.5 8.66789 10.6679 8.5 10.875 8.5H12.875C13.0821 8.5 13.25 8.66789 13.25 8.875C13.25 9.08211 13.0821 9.25 12.875 9.25H10.875C10.6679 9.25 10.5 9.08211 10.5 8.875ZM10.5 10.375C10.5 10.1679 10.6679 10 10.875 10H12.875C13.0821 10 13.25 10.1679 13.25 10.375C13.25 10.5821 13.0821 10.75 12.875 10.75H10.875C10.6679 10.75 10.5 10.5821 10.5 10.375ZM11.875 12.125C12.0821 12.125 12.25 12.2929 12.25 12.5V13.625H11.5V12.5C11.5 12.2929 11.6679 12.125 11.875 12.125ZM10.5 6.125C10.5 5.91789 10.6679 5.75 10.875 5.75H12.875C13.0821 5.75 13.25 5.91789 13.25 6.125C13.25 6.33211 13.0821 6.5 12.875 6.5H10.875C10.6679 6.5 10.5 6.33211 10.5 6.125ZM10.5 7.625C10.5 7.41789 10.6679 7.25 10.875 7.25H12.875C13.0821 7.25 13.25 7.41789 13.25 7.625C13.25 7.83211 13.0821 8 12.875 8H10.875C10.6679 8 10.5 7.83211 10.5 7.625Z" fill="#3B82F6"/>
<path id="icon-background" opacity="0.5" d="M4 10.1433C4 5.64588 7.58172 2 12 2C16.4183 2 20 5.64588 20 10.1433C20 14.6055 14 18.5 13.4629 21.6744C12.5 22.5 11.5 22.5 10.5371 21.6744C10 18.5 4 14.6055 4 10.1433Z" stroke="#1E40AF" stroke-width="1.5"/>
</g>
</svg>
