<svg width="24" height="24" viewBox="0 0 24 24" fill="none" xmlns="http://www.w3.org/2000/svg">
<path d="M9.5 6.5C8.11929 6.5 7 7.61929 7 9C7 10.0252 7.61705 10.9062 8.5 11.292V12.625H15.5V11.292C16.383 10.9062 17 10.0252 17 9C17 7.61929 15.8807 6.5 14.5 6.5C14.3747 6.5 14.2516 6.50921 14.1313 6.527C13.8302 5.63903 12.9897 5 12 5C11.0103 5 10.1698 5.63903 9.86868 6.527C9.74837 6.50921 9.62526 6.5 9.5 6.5Z" fill="#52525B"/>
<path d="M15.4992 13.375H8.50085C8.50594 14.0735 8.54172 14.4559 8.79289 14.7071C9.08579 15 9.55719 15 10.5 15H13.5C14.4428 15 14.9142 15 15.2071 14.7071C15.4583 14.4559 15.4941 14.0735 15.4992 13.375Z" fill="#52525B"/>
<path opacity="0.5" d="M4 10.1433C4 5.64588 7.58172 2 12 2C16.4183 2 20 5.64588 20 10.1433C20 14.6055 14 18.5 13.4629 21.6744C12.5 22.5 11.5 22.5 10.5371 21.6744C10 18.5 4 14.6055 4 10.1433Z" stroke="#4D7C0F" stroke-width="1.5"/>
</svg>
