<svg width="24" height="24" viewBox="0 0 24 24" fill="none" xmlns="http://www.w3.org/2000/svg">
<g id="Media&#38;Publishing">
<g id="icon-symbol">
<path d="M8.73292 6.26543C8.87951 6.11913 8.87974 5.88169 8.73344 5.7351C8.58714 5.58851 8.34971 5.58827 8.20311 5.73457C7.2286 6.70714 6.625 8.05298 6.625 9.53908C6.625 11.0426 7.24282 12.4025 8.23748 13.3776C8.38538 13.5226 8.6228 13.5202 8.76779 13.3723C8.91277 13.2244 8.91041 12.987 8.76252 12.842C7.90582 12.0022 7.375 10.833 7.375 9.53908C7.375 8.26015 7.89361 7.10306 8.73292 6.26543Z" fill="#14B8A6"/>
<path d="M15.8385 5.77656C15.6935 5.62867 15.4561 5.62631 15.3082 5.77129C15.1603 5.91628 15.1579 6.1537 15.3029 6.3016C16.1211 7.13621 16.625 8.27843 16.625 9.53908C16.625 10.8147 16.1091 11.9691 15.2736 12.8062C15.1273 12.9528 15.1276 13.1902 15.2742 13.3365C15.4208 13.4828 15.6582 13.4826 15.8045 13.336C16.7745 12.364 17.375 11.0213 17.375 9.53908C17.375 8.07428 16.7886 6.74569 15.8385 5.77656Z" fill="#14B8A6"/>
<path d="M10.137 7.81287C10.2883 7.67136 10.2961 7.43405 10.1546 7.28283C10.0131 7.13161 9.7758 7.12374 9.62458 7.26525C9.01074 7.83969 8.625 8.64054 8.625 9.53016C8.625 10.4302 9.01984 11.2394 9.64622 11.8151C9.7987 11.9553 10.0359 11.9453 10.1761 11.7928C10.3162 11.6404 10.3063 11.4031 10.1538 11.263C9.66935 10.8177 9.375 10.2039 9.375 9.53016C9.375 8.86416 9.66259 8.25687 10.137 7.81287Z" fill="#14B8A6"/>
<path d="M14.4016 7.29005C14.252 7.1469 14.0146 7.15218 13.8714 7.30184C13.7283 7.45151 13.7336 7.68889 13.8832 7.83204C14.3456 8.27428 14.625 8.87364 14.625 9.53016C14.625 10.1944 14.3389 10.8003 13.8667 11.244C13.7157 11.3858 13.7083 11.6231 13.8502 11.774C13.992 11.925 14.2293 11.9324 14.3802 11.7906C14.9913 11.2165 15.375 10.4174 15.375 9.53016C15.375 8.65334 15.0002 7.86262 14.4016 7.29005Z" fill="#14B8A6"/>
<path fill-rule="evenodd" clip-rule="evenodd" d="M11.4163 10.312C11.1642 10.1305 11 9.83442 11 9.5C11 8.94772 11.4477 8.5 12 8.5C12.5523 8.5 13 8.94772 13 9.5C13 9.83442 12.8358 10.1305 12.5837 10.312L14.3573 15.8863C14.4116 16.0567 14.3379 16.2416 14.1815 16.3282C14.025 16.4147 13.8292 16.3787 13.7137 16.2422L12 14.2169L10.2863 16.2422C10.1708 16.3787 9.97499 16.4147 9.81852 16.3282C9.66206 16.2416 9.58844 16.0567 9.64265 15.8863L11.4163 10.312ZM12.4912 13.6364L13.0733 14.3242L12.7552 13.3244L12.4912 13.6364ZM12.4872 12.4824C12.4791 12.4904 12.4713 12.4989 12.4637 12.5078L12 13.0558L11.5363 12.5078C11.5287 12.4989 11.5209 12.4904 11.5128 12.4824L12 10.9511L12.4872 12.4824ZM11.2448 13.3244L11.5088 13.6364L10.9267 14.3242L11.2448 13.3244Z" fill="#14B8A6"/>
</g>
<path id="icon-background" opacity="0.5" d="M4 10.1433C4 5.64588 7.58172 2 12 2C16.4183 2 20 5.64588 20 10.1433C20 14.6055 14 18.5 13.4629 21.6744C12.5 22.5 11.5 22.5 10.5371 21.6744C10 18.5 4 14.6055 4 10.1433Z" stroke="#14B8A6" stroke-width="1.5"/>
</g>
</svg>
