<svg width="28" height="30" viewBox="0 0 28 30" fill="none" xmlns="http://www.w3.org/2000/svg">
<g opacity="0.7" filter="url(#filter0_d_7663_27699)">
<path d="M14 22.0003C19.5228 22.0003 24 19.9856 24 17.5003C24 16.2337 22.837 15.0892 20.9654 14.2715C19.8233 16.3673 18.0817 18.1738 15.8695 19.1192C14.6804 19.6274 13.3196 19.6274 12.1305 19.1192C9.91828 18.1738 8.17666 16.3673 7.03458 14.2715C5.16295 15.0892 4 16.2337 4 17.5003C4 19.9856 8.47715 22.0003 14 22.0003Z" fill="#FF4ECD"/>
<path opacity="0.8" fill-rule="evenodd" clip-rule="evenodd" d="M14 3C10.6863 3 8 5.73441 8 9.10747C8 12.4541 13 15.5 12.9028 17.7558C13.5993 18.0814 14.4007 18.0814 15.0972 17.7558C15 15.5 20 12.4541 20 9.10747C20 5.73441 17.3137 3 14 3ZM14 6.5625C14.3107 6.5625 14.5625 6.81434 14.5625 7.125V8.4375H15.875C16.1857 8.4375 16.4375 8.68934 16.4375 9C16.4375 9.31066 16.1857 9.5625 15.875 9.5625H14.5625V10.875C14.5625 11.1857 14.3107 11.4375 14 11.4375C13.6893 11.4375 13.4375 11.1857 13.4375 10.875V9.5625H12.125C11.8143 9.5625 11.5625 9.31066 11.5625 9C11.5625 8.68934 11.8143 8.4375 12.125 8.4375H13.4375V7.125C13.4375 6.81434 13.6893 6.5625 14 6.5625Z" fill="#FF4ECD"/>
</g>
<defs>
<filter id="filter0_d_7663_27699" x="0" y="3" width="28" height="27.0003" filterUnits="userSpaceOnUse" color-interpolation-filters="sRGB">
<feFlood flood-opacity="0" result="BackgroundImageFix"/>
<feColorMatrix in="SourceAlpha" type="matrix" values="0 0 0 0 0 0 0 0 0 0 0 0 0 0 0 0 0 0 127 0" result="hardAlpha"/>
<feOffset dy="4"/>
<feGaussianBlur stdDeviation="2"/>
<feComposite in2="hardAlpha" operator="out"/>
<feColorMatrix type="matrix" values="0 0 0 0 0 0 0 0 0 0 0 0 0 0 0 0 0 0 0.25 0"/>
<feBlend mode="normal" in2="BackgroundImageFix" result="effect1_dropShadow_7663_27699"/>
<feBlend mode="normal" in="SourceGraphic" in2="effect1_dropShadow_7663_27699" result="shape"/>
</filter>
</defs>
</svg>
