<?xml version="1.0" encoding="utf-8"?>
<svg fill="none" height="24" viewBox="0 0 24 24" width="24" xmlns="http://www.w3.org/2000/svg">
<g id="Education">
<g id="icon-symbol">
<path d="M13.1085 5.74982C12.398 5.41673 11.6018 5.41672 10.8913 5.74982L8.7446 6.75623C9.13557 6.79842 9.49301 7.0447 9.65895 7.43188C9.9037 8.00297 9.63915 8.66433 9.06807 8.90908L8.53023 9.13958C8.26297 9.25412 8.1113 9.32031 8.00891 9.3728C8.00835 9.38097 8.00782 9.38939 8.00732 9.3981L10.8913 10.7502C11.6018 11.0833 12.398 11.0833 13.1085 10.7502L16.4541 9.1817C17.1818 8.84053 17.1818 7.6595 16.4541 7.31832L13.1085 5.74982Z" fill="#1D4ED8"/>
<path d="M8.4999 10.4574V12.3127C8.4999 12.8167 8.75165 13.2886 9.19257 13.5328C9.92675 13.9394 11.1019 14.5 11.9999 14.5C12.8979 14.5 14.0731 13.9394 14.8072 13.5328C15.2481 13.2886 15.4999 12.8167 15.4999 12.3127V10.4574L13.4269 11.4293C12.5147 11.8569 11.4852 11.8569 10.5729 11.4293L8.4999 10.4574Z" fill="#1D4ED8"/>
<path d="M8.77272 8.21978C8.96308 8.13819 9.05126 7.91774 8.96968 7.72738C8.8881 7.53702 8.66764 7.44883 8.47728 7.53042L7.92159 7.76857C7.64286 7.88802 7.40664 7.98924 7.22127 8.09353C7.02402 8.20449 6.85426 8.33472 6.72709 8.52757C6.59993 8.72041 6.54711 8.92775 6.52281 9.15276C6.49998 9.36422 6.49999 9.62121 6.5 9.92445V11.3751C6.5 11.5822 6.66789 11.7501 6.875 11.7501C7.08211 11.7501 7.25 11.5822 7.25 11.3751V9.94389C7.25 9.61599 7.25051 9.39973 7.26848 9.23327C7.28548 9.07586 7.31523 8.99806 7.35323 8.94044C7.39122 8.88281 7.45101 8.82482 7.589 8.74719C7.73492 8.66509 7.9335 8.57944 8.23488 8.45028L8.77272 8.21978Z" fill="#1D4ED8"/>
</g>
<path d="M4 10.1433C4 5.64588 7.58172 2 12 2C16.4183 2 20 5.64588 20 10.1433C20 14.6055 14 18.5 13.4629 21.6744C12.5 22.5 11.5 22.5 10.5371 21.6744C10 18.5 4 14.6055 4 10.1433Z" id="icon-background" opacity="0.5" stroke="#1D4ED8" stroke-width="1.5"/>
</g>
</svg>